<svg xmlns="http://www.w3.org/2000/svg" viewBox="0 0 155.19519 122.2032"><defs><style>.cls-1{fill:#99c0f0;}.cls-2{fill:#80a1c6;}.cls-3{fill:#fff;}.cls-4{fill:#6b90bc;}.cls-5{fill:#494646;}.cls-6{fill:#676464;}.cls-7{fill:#ededed;}.cls-8{fill:#a2a0a0;}.cls-9{fill:#d0d0d0;}.cls-10{fill:#ed715b;}.cls-11{fill:none;stroke:#eb453b;stroke-linecap:round;stroke-miterlimit:10;}</style></defs><title>资源 24</title><g id="图层_2" data-name="图层 2"><g id="图层_1-2" data-name="图层 1"><path class="cls-1" d="M52.75422,38.60147h95.12933a0,0,0,0,1,0,0V73.34165A11.57552,11.57552,0,0,1,136.308,84.91717H64.32974A11.57552,11.57552,0,0,1,52.75422,73.34165V38.60147A0,0,0,0,1,52.75422,38.60147Z"/><rect class="cls-2" x="52.75433" y="38.60147" width="95.12912" height="2.0816"/><rect class="cls-3" x="70.39582" y="34.30369" width="3.95505" height="39.50739" rx="1.79926" ry="1.79926"/><rect class="cls-3" x="89.02618" y="34.30369" width="3.95505" height="39.50739" rx="1.79926" ry="1.79926"/><rect class="cls-3" x="107.65654" y="34.30369" width="3.95505" height="39.50739" rx="1.79926" ry="1.79926"/><rect class="cls-3" x="126.28691" y="34.30369" width="3.95505" height="39.50739" rx="1.79926" ry="1.79926"/><polygon class="cls-1" points="152.723 38.601 47.914 38.601 46.067 22.443 154.571 22.443 152.723 38.601"/><path class="cls-4" d="M74.35087,71.09269v.74086a1.98334,1.98334,0,0,1-1.97752,1.97752h0a1.98334,1.98334,0,0,1-1.97752-1.97752v-.74086Z"/><path class="cls-4" d="M92.98123,71.09269v.74086a1.98334,1.98334,0,0,1-1.97752,1.97752h0a1.98334,1.98334,0,0,1-1.97752-1.97752v-.74086Z"/><path class="cls-4" d="M111.61159,71.09269v.74086a1.98334,1.98334,0,0,1-1.97752,1.97752h0a1.98334,1.98334,0,0,1-1.97752-1.97752v-.74086Z"/><path class="cls-4" d="M130.242,71.09269v.74086a1.98334,1.98334,0,0,1-1.97752,1.97752h0a1.98334,1.98334,0,0,1-1.97752-1.97752v-.74086Z"/><circle class="cls-5" cx="65.28433" cy="110.02582" r="12.17739"/><circle class="cls-6" cx="65.28433" cy="110.02582" r="6.49439"/><circle class="cls-7" cx="65.28433" cy="110.02582" r="2.95505"/><path class="cls-8" d="M72.91972,99.2405a7.76869,7.76869,0,0,1-15.27079,0Z"/><circle class="cls-5" cx="133.7431" cy="110.02582" r="12.17739"/><circle class="cls-6" cx="133.7431" cy="110.02582" r="6.49439"/><circle class="cls-7" cx="133.7431" cy="110.02582" r="2.95505"/><path class="cls-8" d="M141.3785,99.2405a7.76869,7.76869,0,0,1-15.27079,0Z"/><path class="cls-9" d="M25.70782,3.851H40.59129l9.2111,88.41616H152.866a1.81114,1.81114,0,0,1,1.64909,1.06626,5.48753,5.48753,0,0,1,.0868,5.05957,1.78769,1.78769,0,0,1-1.53511.84755H43.7137L34.26842,10.53812h-8.5606Z"/><rect class="cls-10" width="27.39912" height="15.06561" rx="4.53374" ry="4.53374"/><line class="cls-11" x1="5.38654" y1="3.35659" x2="22.01258" y2="3.35659"/><line class="cls-11" x1="5.38654" y1="7.67592" x2="22.01258" y2="7.67592"/><line class="cls-11" x1="5.38654" y1="11.99525" x2="22.01258" y2="11.99525"/></g></g></svg>