<svg id="图层_1" data-name="图层 1" xmlns="http://www.w3.org/2000/svg" viewBox="0 0 90 90"><defs><style>.cls-1{fill:#fff7d7;}.cls-2{fill:#fcaf17;}.cls-3{fill:#ffd400;}.cls-4,.cls-5{fill:none;stroke:#fff;stroke-linecap:round;stroke-miterlimit:10;}.cls-4{stroke-width:1.5px;}.cls-5{stroke-width:1.8px;}</style></defs><title>商城ICON</title><circle class="cls-1" cx="45" cy="45" r="45"/><path class="cls-2" d="M23.98257,67.78677a3.49553,3.49553,0,0,1-2.38368-.83463,1.33251,1.33251,0,1,1,1.74371-2.01538c.733.63172,3.90026-.15721,9.30152-4.93984a76.4155,76.4155,0,0,0,9.58137-10.38649c9.00283-11.6423,12.19133-21.27171,10.43212-22.7886A1.33269,1.33269,0,1,1,54.39555,24.801c4.0922,3.5219-1.96454,15.9663-10.06405,26.44062a78.90657,78.90657,0,0,1-9.92265,10.75176c-2.69273,2.3889-7.118,5.79339-10.42628,5.79339Zm0,0"/><path class="cls-3" d="M49.88335,20.96248c3.54161,2.784-.95719,14.41749-10.04887,25.9841-9.09167,11.56693-19.333,18.687-22.87464,15.90331-3.54169-2.78391.95719-14.41718,10.04879-25.9841s19.333-18.687,22.87472-15.90331Zm0,0"/><path class="cls-2" d="M19.39157,63.79315a3.636,3.636,0,0,1-2.43422-.83432C12.86,59.43177,18.91986,46.99494,27.0214,36.53128c7.302-9.42961,15.25181-16.0676,19.78138-16.52077a3.76352,3.76352,0,0,1,2.94852.81026c1.94608,1.66615,1.78638,5.26531-.49328,10.69849a1.33233,1.33233,0,0,1-2.458-1.029c2.11941-5.05725,1.71942-7.21131,1.213-7.646a1.24841,1.24841,0,0,0-.94925-.18127c-3.19644.31995-10.38377,5.74768-17.93909,15.5C20.11945,49.79169,16.931,59.42079,18.69047,60.938a1.24979,1.24979,0,0,0,.95174.17582c3.20189-.32244,10.38922-5.75049,17.93115-15.49973a86.17238,86.17238,0,0,0,5.40126-7.7953,1.33278,1.33278,0,1,1,2.27669,1.38631,87.5231,87.5231,0,0,1-5.56922,8.0405c-7.28855,9.42136-15.233,16.06239-19.7704,16.52078a4.81032,4.81032,0,0,1-.51523.02679h-.00491Zm0,0"/><path class="cls-2" d="M22.75347,67.47227h-.00241a1.32181,1.32181,0,0,1-.86594-.32151l-4.77017-4.07211a1.33211,1.33211,0,1,1,1.73008-2.026L23.617,65.126a1.333,1.333,0,0,1-.86353,2.34631Zm31.1302-40.13335a1.33065,1.33065,0,0,1-.86866-.3215L48.25823,22.9429a1.33309,1.33309,0,0,1,1.73312-2.026l4.75856,4.07607a1.333,1.333,0,0,1-.86625,2.346ZM47.49874,60.52733h-.0563a60.41109,60.41109,0,0,1-10.78337-1.34348,1.33319,1.33319,0,1,1,.59434-2.59929,57.73022,57.73022,0,0,0,10.29851,1.27683,1.33354,1.33354,0,0,1-.05318,2.66594ZM41.132,54.3809l-.07117.104c.11983.01643.24091.03224.36168.04773a1.33264,1.33264,0,0,0,.30445.07631,68.64339,68.64339,0,0,0,8.4964.512c.12684,0,.25337-.00125.37991-.00187a13.72441,13.72441,0,0,1,23.62962-4.48393l-.003-3.576a3.72828,3.72828,0,0,0,.02943-.46415c0-5.37456-11.69-8.37384-23.23625-8.5576A1.31478,1.31478,0,0,0,49.6686,39.349a1.33548,1.33548,0,0,0,.89817,1.28142L42.73737,52.0416c-2.51356-.28382-1.68627.70463-1.76863.53993.35046.70092-.30819-.19047-.39882.53983A1.33338,1.33338,0,0,0,41.132,54.3809Zm10.057,10.73837c-.31567.00428-.63351.00669-.95533.00669-7.21131,0-13.95886-1.09837-18.04311-2.93239a1.33272,1.33272,0,1,0-1.09284,2.4311c4.41214,1.98346,11.56475,3.16724,19.136,3.16724q1.27613,0,2.54915-.04469a7.426,7.426,0,0,1-1.59382-2.62794Zm0,0"/><path class="cls-2" d="M63.6168,48.56835A10.72424,10.72424,0,1,0,74.35851,59.30462,10.73541,10.73541,0,0,0,63.6168,48.56835Zm5.7638,11.82427"/><line class="cls-4" x1="59.52404" y1="59.28749" x2="67.71563" y2="59.28749"/><line class="cls-4" x1="59.52404" y1="62.22499" x2="67.71563" y2="62.22499"/><line class="cls-5" x1="63.61984" y1="58.46163" x2="63.61984" y2="64.70208"/><line class="cls-5" x1="60.42325" y1="53.8831" x2="63.54348" y2="59.28749"/><line class="cls-5" x1="66.81642" y1="53.8831" x2="63.6962" y2="59.28749"/></svg>