<svg id="图层_1" data-name="图层 1" xmlns="http://www.w3.org/2000/svg" viewBox="0 0 29 29"><defs><style>.cls-1{fill:none;stroke:#707070;stroke-linecap:round;stroke-linejoin:round;}.cls-2{fill:#707070;}</style></defs><title>商城ICON</title><rect class="cls-1" x="1.38286" y="7.64184" width="26.23428" height="19.85816" rx="1.46989" ry="1.46989"/><path class="cls-1" d="M8.01845,7.64186S8.576,1.5,14.61573,1.5s6.36585,6.14186,6.36585,6.14186"/><path class="cls-2" d="M7.73617,18.22046l.00614-.0015a.74075.74075,0,0,0,.35083-.21857.93112.93112,0,0,0,.23911-.66285.97556.97556,0,0,0-.29124-.73993,1.09568,1.09568,0,0,0-.78208-.28059H4.89281v.44341H6.90035c.40551,0,.48483.23142.48483.5015a.44732.44732,0,0,1-.44087.49384H4.89281v2.13092h.93472l.00127-1.61613h.75566L7.28531,19.728l.00568.00965a.35874.35874,0,0,0,.29014.149h.85319L7.635,18.24177Z"/><path class="cls-2" d="M11.9131,16.59087a1.09461,1.09461,0,0,0-.78238-.27384H9.74785a1.093,1.093,0,0,0-.78225.27384.9525.9525,0,0,0-.28854.65914l-.00224.02876L8.6747,18.80208H8.67279l.00174.09472a.9699.9699,0,0,0,.29061.716,1.094,1.094,0,0,0,.78221.27388h1.38337a1.09516,1.09516,0,0,0,.78255-.27394.97247.97247,0,0,0,.29027-.71562l.00034-1.62642-.0027-.02285A.95353.95353,0,0,0,11.9131,16.59087Zm-.65626.59595v1.83025c0,.27007-.07919.42634-.48453.42634h-.66622c-.39729,0-.47851-.14585-.48469-.397V17.18681c0-.27007.07936-.42638.48483-.42638h.66609C11.17765,16.76044,11.25684,16.91675,11.25684,17.18681Z"/><path class="cls-2" d="M23.7507,16.317h-.48944l-1.19243,2.21933L20.987,16.504a.34573.34573,0,0,0-.30086-.18694H20.1096v3.56966h.4564a.17418.17418,0,0,0,.16657-.17969V17.76392l1.18831,2.12277,1.23531-2.24588v2.24588h.951V16.71825a.43835.43835,0,0,0-.055-.21445A.34753.34753,0,0,0,23.7507,16.317Z"/><path class="cls-2" d="M15.5632,17.983a.75542.75542,0,0,0,.4363-.837.82623.82623,0,0,0-.56967-.73151,1.24143,1.24143,0,0,0-.41642-.094c-.04359-.00347-.07077-.00354-.07077-.00354l-.248-.00181.00334.00181H12.5855v3.56966h2.2879c.01884,0,.03683-.0005.05484-.00114l.0133-.00007c.54738,0,1.18661-.26318,1.18661-1.00512A.936.936,0,0,0,15.5632,17.983Zm-.90328-.33369H13.45055v-.88889h1.21427a.43773.43773,0,0,1,.40156.44732A.42774.42774,0,0,1,14.65991,17.64933Zm-1.20936.74077h1.2318a.51722.51722,0,0,1,.42223.55253.48031.48031,0,0,1-.38162.50079H13.45055Z"/><path class="cls-2" d="M18.94936,19.88669h.96144l-1.53253-3.36405-.00648-.01122a.34832.34832,0,0,0-.301-.18807h-.21509l-1.66006,3.56335H16.713l.00835-.00224A.33019.33019,0,0,0,16.936,19.709l.0346-.07749.16657-.35817h1.53931Zm-1.02226-2.3102.45069,1.02085h-.92256Z"/></svg>