<svg id="图层_1" data-name="图层 1" xmlns="http://www.w3.org/2000/svg" viewBox="0 0 29 29"><defs><style>.cls-1{fill:#707070;}</style></defs><title>商城ICON</title><path class="cls-1" d="M9.13858,5.97309H5.7352V9.31841H9.13858Zm2.8155-2.74128H2.91139v8.78064h9.0427Zm-1.11917,7.69051H4.05115v-6.583h6.78376Zm4.52134-2.73605h-1.704V9.827h1.704Zm6.1925,14.2656V20.81106h-1.704v1.64082ZM15.88949,16.954h1.704v-1.6324h1.695V13.64662H17.58438v1.64913H15.88884V16.954Zm3.95527,1.10232H18.155V19.6971h5.07646V18.05628H21.54807V16.39563h-1.704v1.66065Zm3.39964-3.30975H21.54033v1.64071H23.2444ZM15.35625,3.765h-1.704V7.07221h1.704ZM5.17234,15.31206V13.66735H3.48256v1.64471ZM17.04725,3.23182v8.78064h9.0427V3.23182Zm7.90611,7.69051H18.16974v-6.583h6.78362Zm-.58792,13.17091H23.24372v-1.6324h-1.704v1.6324H19.84289v1.67494h6.22464v-1.615h.00188V20.79435h-1.704Zm0-4.40711h1.704V18.04533h-1.704Zm-6.78107,4.398h1.70407v-1.64H17.58438ZM23.26613,5.97309H19.86275V9.31841h3.40338Zm1.09931,9.86424h1.704V14.23075h-1.704ZM2.91005,25.76818h9.0427V16.98754H2.91005ZM4.05,18.09452h6.78362v6.58286H4.05Zm2.82313-2.76374h5.65869v-1.664H6.87309Zm9.02482,5.45447h1.69554V19.1788H15.89792V16.95651H14.194v8.771h1.69488v.02317h1.704V24.11H15.89792ZM5.7352,23.06384H9.13858V19.71849H5.7352Zm9.62105-12.13376H13.64642v1.64071h1.70983Zm0,0"/></svg>