<svg id="图层_1" data-name="图层 1" xmlns="http://www.w3.org/2000/svg" viewBox="0 0 29 28"><defs><style>.cls-1{fill:#fff;}</style></defs><title>商城ICON</title><path class="cls-1" d="M22.75,27.50005H6.25a6.00026,6.00026,0,0,1-6-6V6.5a6.00027,6.00027,0,0,1,6-6h16.5a6.00027,6.00027,0,0,1,6,6V21.5a6.00026,6.00026,0,0,1-6,6ZM27.2501,7.39989A5.4004,5.4004,0,0,0,21.85005,2H7.14994A5.40037,5.40037,0,0,0,1.75,7.39989V20.6A5.40041,5.40041,0,0,0,7.14994,26H21.85005A5.40044,5.40044,0,0,0,27.2501,20.6ZM10.75,8.03,19.75,14,10.75,19.97Zm0,0"/></svg>